<svg xmlns="http://www.w3.org/2000/svg" version="1.1" xmlns:xlink="http://www.w3.org/1999/xlink" xmlns:svgjs="http://svgjs.dev/svgjs" width="1920" height="1080" preserveAspectRatio="none" viewBox="0 0 1920 1080"><g mask="url(&quot;#SvgjsMask1025&quot;)" fill="none"><rect width="1920" height="1080" x="0" y="0" fill="rgba(255, 255, 255, 1)"></rect><use xlink:href="#SvgjsG1035" transform="translate(0, 0)" fill="rgba(235, 235, 235, 1)"></use><use xlink:href="#SvgjsG1035" transform="translate(0, 990)" fill="rgba(235, 235, 235, 1)"></use><use xlink:href="#SvgjsG1035" transform="translate(990, 0)" fill="rgba(235, 235, 235, 1)"></use><use xlink:href="#SvgjsG1035" transform="translate(990, 990)" fill="rgba(235, 235, 235, 1)"></use></g><defs><mask id="SvgjsMask1025"><rect width="1920" height="1080" fill="#ffffff"></rect></mask><g id="SvgjsG1027"><path d="M9.1 5.49c-0.26 0.46-0.95 0.71-1.49 0.41l-4.29 7.75c-0.61 1.1-2.11 0.27-1.51-0.84L6.11 5.07c-0.53-0.29-0.76-0.95-0.43-1.56L8.05-0.76c0.2-0.37 0.75-0.09 0.53 0.31l-1.75 3.16 0.45 0.25L9.04-0.23c0.19-0.34 0.72-0.08 0.51 0.3l-1.75 3.17 0.46 0.26L10.02 0.32C10.22-0.04 10.73 0.23 10.51 0.61l-1.75 3.17 0.46 0.25L10.98 0.86c0.2-0.36 0.73-0.08 0.52 0.3l-2.4 4.33zM14.94 4.36l-6.67 12.03c-0.59 1.08-2.09 0.23-1.5-0.83L9.42 10.78l-0.8-0.44L12.65 3.08c0.94-1.69 3.24-0.41 2.29 1.28z"></path></g><g id="SvgjsG1029"><path d="M10.68 1.58a0.29 0.29 0 0 1-0.07-0.37c0.05-0.1 0.15-0.14 0.25-0.15-0.05-0.09-0.06-0.2-0.01-0.29C10.93 0.62 11.1 0.57 11.24 0.65l1.25 0.69c0.14 0.08 0.19 0.25 0.11 0.4-0.05 0.1-0.15 0.15-0.25 0.14 0.05 0.09 0.07 0.2 0.01 0.3a0.29 0.29 0 0 1-0.35 0.13l-0.79 4.99c-0.05 0.32-0.17 0.65-0.33 0.95l-4.08 7.36a0.57 0.57 0 0 1-0.78 0.22L2.38 13.81A0.57 0.57 0 0 1 2.16 13.03L6.24 5.68c0.17-0.3 0.38-0.57 0.62-0.8l3.82-3.3z" fill-rule="evenodd"></path></g><g id="SvgjsG1028"><path d="M9.52 6.69c0.67 0.6 0.88 1.59 0.44 2.37l-3.34 6.02c-0.1 0.19-0.35 0.25-0.54 0.15L2.62 13.31a0.4 0.4 0 0 1-0.16-0.53L5.8 6.75c0.44-0.79 1.38-1.13 2.25-0.88L9.54 3.18l1.47 0.81L9.52 6.69zM10.2 1.98l1.47 0.82-0.32 0.58-1.47-0.81L10.2 1.98z"></path></g><g id="SvgjsG1033"><path d="M12.17 15.06L-0.99 7.76c-0.65 1.17-0.06 2.2 0.65 2.59l9.96 5.52c0.85 0.47 1.97 0.22 2.55-0.82zM15.07 5.25L5.47-0.07l-3.5 6.3c-0.47 0.85-0.11 1.94 0.69 2.38l6.23 3.45c0.9 0.5 1.93 0.08 2.36-0.69L11.54 10.85c1.78 0.98 3.81 0.36 4.67-1.19 0.88-1.59 0.34-3.59-1.14-4.41z m0 3.78c-0.5 0.91-1.65 1.4-2.87 0.62L14.09 6.25l0.33 0.18 0 0c1.22 0.67 0.97 2.04 0.65 2.6l0 0z"></path></g><g id="SvgjsG1032"><path d="M13.4 14.76L-0.59 7C-1.15 8.01-0.64 8.91-0.02 9.26L11.19 15.47c0.74 0.41 1.71 0.19 2.21-0.71zM14.7 6.14L6.35 1.51l-3.03 5.48c-0.41 0.75-0.1 1.69 0.59 2.07l5.42 3c0.78 0.43 1.68 0.07 2.05-0.61l0.25-0.45c1.55 0.86 3.31 0.32 4.06-1.04 0.76-1.38 0.29-3.12-0.99-3.82zM12.21 9.95L13.84 7.01l0.29 0.16c1.06 0.59 0.84 1.77 0.57 2.25-0.43 0.78-1.43 1.21-2.49 0.53z"></path></g><g id="SvgjsG1026"><path d="M8.29-0.99s-2.02 4.12 1.68 5.73S12.22 1.61 8.29-0.99m-3.54 15.07a2.32 2.32 0 0 1-2.14-0.07c-0.56-0.31-0.96-0.88-1.13-1.45-0.3-1.24-0.26-3.63-0.26-3.63C1.29 7.51 1.48 6.48 1.96 5.61c1.03-1.86 3.43-2.64 5.29-1.6 0.92 0.51 1.54 1.34 1.82 2.26a3.83 3.83 0 0 1 2.89 0.35c1.86 1.03 2.47 3.48 1.44 5.33-0.48 0.87-1.25 1.57-2.42 2.38 0 0-2 1.3-3.22 1.71-0.57 0.16-1.27 0.12-1.82-0.19a2.32 2.32 0 0 1-1.19-1.77" fill-rule="evenodd"></path></g><g id="SvgjsG1031"><path d="M9.33 15.66L5.96 13.79l2.66-4.79L18.85 4.87 4.88-2.88l2.05 10.89-2.68 4.84-3.3-1.83c-1.14-0.63-2.08 1.07-0.94 1.7L8.38 17.36c1.13 0.63 2.07-1.08 0.95-1.7zM9.57 5.22c0.33-0.6 1.08-0.81 1.68-0.48 0.6 0.33 0.81 1.09 0.48 1.68-0.33 0.6-1.08 0.82-1.68 0.48-0.6-0.33-0.82-1.08-0.48-1.68z"></path></g><g id="SvgjsG1030"><path d="M8.2 6.54c-0.32 0.58-1.19 0.9-1.86 0.52l-3.31 5.98c-0.77 1.38-2.65 0.34-1.89-1.05L4.45 6.02c-0.66-0.37-0.96-1.2-0.53-1.97L6.89-1.3c0.26-0.47 0.94-0.11 0.66 0.39l-2.19 3.96 0.56 0.31L8.14-0.63c0.24-0.43 0.9-0.1 0.64 0.37l-2.21 3.98 0.59 0.33L9.37 0.05c0.25-0.45 0.89-0.12 0.62 0.37l-2.21 3.97 0.58 0.32L10.57 0.72c0.25-0.44 0.91-0.1 0.65 0.38L8.21 6.54z m7.35-1.41l-6.29 11.35c-0.75 1.35-2.63 0.28-1.89-1.04l2.38-4.3-1-0.56L12.66 3.53c1.18-2.12 4.07-0.52 2.89 1.6z"></path></g><g id="SvgjsG1034"><path d="M13.36 6.68l-6.99 9.54L1.97 13.78 6.36 2.8l5.37 2.98L14.85 2.65 15.36 3.16l-2.98 2.97 0.98 0.55z" fill-rule="evenodd"></path></g><g id="SvgjsG1035"><use xlink:href="#SvgjsG1026" transform="translate(0, 0) scale(3)" fill="rgba(235, 235, 235, 1)"></use><use xlink:href="#SvgjsG1027" transform="translate(0, 99) scale(3)" fill="rgba(235, 235, 235, 1)"></use><use xlink:href="#SvgjsG1028" transform="translate(0, 198) scale(3)" fill="rgba(235, 235, 235, 1)"></use><use xlink:href="#SvgjsG1029" transform="translate(0, 297) scale(3)" fill="rgba(235, 235, 235, 1)"></use><use xlink:href="#SvgjsG1026" transform="translate(0, 396) scale(3)" fill="rgba(235, 235, 235, 1)"></use><use xlink:href="#SvgjsG1030" transform="translate(0, 495) scale(3)" fill="rgba(235, 235, 235, 1)"></use><use xlink:href="#SvgjsG1026" transform="translate(0, 594) scale(3)" fill="rgba(235, 235, 235, 1)"></use><use xlink:href="#SvgjsG1031" transform="translate(0, 693) scale(3)" fill="rgba(235, 235, 235, 1)"></use><use xlink:href="#SvgjsG1031" transform="translate(0, 792) scale(3)" fill="rgba(235, 235, 235, 1)"></use><use xlink:href="#SvgjsG1028" transform="translate(0, 891) scale(3)" fill="rgba(235, 235, 235, 1)"></use><use xlink:href="#SvgjsG1032" transform="translate(99, 0) scale(3)" fill="rgba(235, 235, 235, 1)"></use><use xlink:href="#SvgjsG1027" transform="translate(99, 99) scale(3)" fill="rgba(235, 235, 235, 1)"></use><use xlink:href="#SvgjsG1031" transform="translate(99, 198) scale(3)" fill="rgba(235, 235, 235, 1)"></use><use xlink:href="#SvgjsG1027" transform="translate(99, 297) scale(3)" fill="rgba(235, 235, 235, 1)"></use><use xlink:href="#SvgjsG1033" transform="translate(99, 396) scale(3)" fill="rgba(235, 235, 235, 1)"></use><use xlink:href="#SvgjsG1033" transform="translate(99, 495) scale(3)" fill="rgba(235, 235, 235, 1)"></use><use xlink:href="#SvgjsG1027" transform="translate(99, 594) scale(3)" fill="rgba(235, 235, 235, 1)"></use><use xlink:href="#SvgjsG1028" transform="translate(99, 693) scale(3)" fill="rgba(235, 235, 235, 1)"></use><use xlink:href="#SvgjsG1029" transform="translate(99, 792) scale(3)" fill="rgba(235, 235, 235, 1)"></use><use xlink:href="#SvgjsG1034" transform="translate(99, 891) scale(3)" fill="rgba(235, 235, 235, 1)"></use><use xlink:href="#SvgjsG1032" transform="translate(198, 0) scale(3)" fill="rgba(235, 235, 235, 1)"></use><use xlink:href="#SvgjsG1030" transform="translate(198, 99) scale(3)" fill="rgba(235, 235, 235, 1)"></use><use xlink:href="#SvgjsG1029" transform="translate(198, 198) scale(3)" fill="rgba(235, 235, 235, 1)"></use><use xlink:href="#SvgjsG1029" transform="translate(198, 297) scale(3)" fill="rgba(235, 235, 235, 1)"></use><use xlink:href="#SvgjsG1027" transform="translate(198, 396) scale(3)" fill="rgba(235, 235, 235, 1)"></use><use xlink:href="#SvgjsG1027" transform="translate(198, 495) scale(3)" fill="rgba(235, 235, 235, 1)"></use><use xlink:href="#SvgjsG1028" transform="translate(198, 594) scale(3)" fill="rgba(235, 235, 235, 1)"></use><use xlink:href="#SvgjsG1034" transform="translate(198, 693) scale(3)" fill="rgba(235, 235, 235, 1)"></use><use xlink:href="#SvgjsG1032" transform="translate(198, 792) scale(3)" fill="rgba(235, 235, 235, 1)"></use><use xlink:href="#SvgjsG1028" transform="translate(198, 891) scale(3)" fill="rgba(235, 235, 235, 1)"></use><use xlink:href="#SvgjsG1028" transform="translate(297, 0) scale(3)" fill="rgba(235, 235, 235, 1)"></use><use xlink:href="#SvgjsG1032" transform="translate(297, 99) scale(3)" fill="rgba(235, 235, 235, 1)"></use><use xlink:href="#SvgjsG1026" transform="translate(297, 198) scale(3)" fill="rgba(235, 235, 235, 1)"></use><use xlink:href="#SvgjsG1026" transform="translate(297, 297) scale(3)" fill="rgba(235, 235, 235, 1)"></use><use xlink:href="#SvgjsG1028" transform="translate(297, 396) scale(3)" fill="rgba(235, 235, 235, 1)"></use><use xlink:href="#SvgjsG1027" transform="translate(297, 495) scale(3)" fill="rgba(235, 235, 235, 1)"></use><use xlink:href="#SvgjsG1029" transform="translate(297, 594) scale(3)" fill="rgba(235, 235, 235, 1)"></use><use xlink:href="#SvgjsG1032" transform="translate(297, 693) scale(3)" fill="rgba(235, 235, 235, 1)"></use><use xlink:href="#SvgjsG1029" transform="translate(297, 792) scale(3)" fill="rgba(235, 235, 235, 1)"></use><use xlink:href="#SvgjsG1026" transform="translate(297, 891) scale(3)" fill="rgba(235, 235, 235, 1)"></use><use xlink:href="#SvgjsG1029" transform="translate(396, 0) scale(3)" fill="rgba(235, 235, 235, 1)"></use><use xlink:href="#SvgjsG1032" transform="translate(396, 99) scale(3)" fill="rgba(235, 235, 235, 1)"></use><use xlink:href="#SvgjsG1033" transform="translate(396, 198) scale(3)" fill="rgba(235, 235, 235, 1)"></use><use xlink:href="#SvgjsG1034" transform="translate(396, 297) scale(3)" fill="rgba(235, 235, 235, 1)"></use><use xlink:href="#SvgjsG1026" transform="translate(396, 396) scale(3)" fill="rgba(235, 235, 235, 1)"></use><use xlink:href="#SvgjsG1028" transform="translate(396, 495) scale(3)" fill="rgba(235, 235, 235, 1)"></use><use xlink:href="#SvgjsG1027" transform="translate(396, 594) scale(3)" fill="rgba(235, 235, 235, 1)"></use><use xlink:href="#SvgjsG1028" transform="translate(396, 693) scale(3)" fill="rgba(235, 235, 235, 1)"></use><use xlink:href="#SvgjsG1033" transform="translate(396, 792) scale(3)" fill="rgba(235, 235, 235, 1)"></use><use xlink:href="#SvgjsG1031" transform="translate(396, 891) scale(3)" fill="rgba(235, 235, 235, 1)"></use><use xlink:href="#SvgjsG1027" transform="translate(495, 0) scale(3)" fill="rgba(235, 235, 235, 1)"></use><use xlink:href="#SvgjsG1029" transform="translate(495, 99) scale(3)" fill="rgba(235, 235, 235, 1)"></use><use xlink:href="#SvgjsG1026" transform="translate(495, 198) scale(3)" fill="rgba(235, 235, 235, 1)"></use><use xlink:href="#SvgjsG1030" transform="translate(495, 297) scale(3)" fill="rgba(235, 235, 235, 1)"></use><use xlink:href="#SvgjsG1034" transform="translate(495, 396) scale(3)" fill="rgba(235, 235, 235, 1)"></use><use xlink:href="#SvgjsG1032" transform="translate(495, 495) scale(3)" fill="rgba(235, 235, 235, 1)"></use><use xlink:href="#SvgjsG1034" transform="translate(495, 594) scale(3)" fill="rgba(235, 235, 235, 1)"></use><use xlink:href="#SvgjsG1026" transform="translate(495, 693) scale(3)" fill="rgba(235, 235, 235, 1)"></use><use xlink:href="#SvgjsG1030" transform="translate(495, 792) scale(3)" fill="rgba(235, 235, 235, 1)"></use><use xlink:href="#SvgjsG1034" transform="translate(495, 891) scale(3)" fill="rgba(235, 235, 235, 1)"></use><use xlink:href="#SvgjsG1026" transform="translate(594, 0) scale(3)" fill="rgba(235, 235, 235, 1)"></use><use xlink:href="#SvgjsG1029" transform="translate(594, 99) scale(3)" fill="rgba(235, 235, 235, 1)"></use><use xlink:href="#SvgjsG1034" transform="translate(594, 198) scale(3)" fill="rgba(235, 235, 235, 1)"></use><use xlink:href="#SvgjsG1032" transform="translate(594, 297) scale(3)" fill="rgba(235, 235, 235, 1)"></use><use xlink:href="#SvgjsG1033" transform="translate(594, 396) scale(3)" fill="rgba(235, 235, 235, 1)"></use><use xlink:href="#SvgjsG1032" transform="translate(594, 495) scale(3)" fill="rgba(235, 235, 235, 1)"></use><use xlink:href="#SvgjsG1028" transform="translate(594, 594) scale(3)" fill="rgba(235, 235, 235, 1)"></use><use xlink:href="#SvgjsG1031" transform="translate(594, 693) scale(3)" fill="rgba(235, 235, 235, 1)"></use><use xlink:href="#SvgjsG1031" transform="translate(594, 792) scale(3)" fill="rgba(235, 235, 235, 1)"></use><use xlink:href="#SvgjsG1028" transform="translate(594, 891) scale(3)" fill="rgba(235, 235, 235, 1)"></use><use xlink:href="#SvgjsG1027" transform="translate(693, 0) scale(3)" fill="rgba(235, 235, 235, 1)"></use><use xlink:href="#SvgjsG1032" transform="translate(693, 99) scale(3)" fill="rgba(235, 235, 235, 1)"></use><use xlink:href="#SvgjsG1032" transform="translate(693, 198) scale(3)" fill="rgba(235, 235, 235, 1)"></use><use xlink:href="#SvgjsG1026" transform="translate(693, 297) scale(3)" fill="rgba(235, 235, 235, 1)"></use><use xlink:href="#SvgjsG1027" transform="translate(693, 396) scale(3)" fill="rgba(235, 235, 235, 1)"></use><use xlink:href="#SvgjsG1032" transform="translate(693, 495) scale(3)" fill="rgba(235, 235, 235, 1)"></use><use xlink:href="#SvgjsG1031" transform="translate(693, 594) scale(3)" fill="rgba(235, 235, 235, 1)"></use><use xlink:href="#SvgjsG1030" transform="translate(693, 693) scale(3)" fill="rgba(235, 235, 235, 1)"></use><use xlink:href="#SvgjsG1032" transform="translate(693, 792) scale(3)" fill="rgba(235, 235, 235, 1)"></use><use xlink:href="#SvgjsG1029" transform="translate(693, 891) scale(3)" fill="rgba(235, 235, 235, 1)"></use><use xlink:href="#SvgjsG1028" transform="translate(792, 0) scale(3)" fill="rgba(235, 235, 235, 1)"></use><use xlink:href="#SvgjsG1027" transform="translate(792, 99) scale(3)" fill="rgba(235, 235, 235, 1)"></use><use xlink:href="#SvgjsG1032" transform="translate(792, 198) scale(3)" fill="rgba(235, 235, 235, 1)"></use><use xlink:href="#SvgjsG1026" transform="translate(792, 297) scale(3)" fill="rgba(235, 235, 235, 1)"></use><use xlink:href="#SvgjsG1031" transform="translate(792, 396) scale(3)" fill="rgba(235, 235, 235, 1)"></use><use xlink:href="#SvgjsG1034" transform="translate(792, 495) scale(3)" fill="rgba(235, 235, 235, 1)"></use><use xlink:href="#SvgjsG1026" transform="translate(792, 594) scale(3)" fill="rgba(235, 235, 235, 1)"></use><use xlink:href="#SvgjsG1028" transform="translate(792, 693) scale(3)" fill="rgba(235, 235, 235, 1)"></use><use xlink:href="#SvgjsG1026" transform="translate(792, 792) scale(3)" fill="rgba(235, 235, 235, 1)"></use><use xlink:href="#SvgjsG1029" transform="translate(792, 891) scale(3)" fill="rgba(235, 235, 235, 1)"></use><use xlink:href="#SvgjsG1026" transform="translate(891, 0) scale(3)" fill="rgba(235, 235, 235, 1)"></use><use xlink:href="#SvgjsG1033" transform="translate(891, 99) scale(3)" fill="rgba(235, 235, 235, 1)"></use><use xlink:href="#SvgjsG1034" transform="translate(891, 198) scale(3)" fill="rgba(235, 235, 235, 1)"></use><use xlink:href="#SvgjsG1027" transform="translate(891, 297) scale(3)" fill="rgba(235, 235, 235, 1)"></use><use xlink:href="#SvgjsG1029" transform="translate(891, 396) scale(3)" fill="rgba(235, 235, 235, 1)"></use><use xlink:href="#SvgjsG1026" transform="translate(891, 495) scale(3)" fill="rgba(235, 235, 235, 1)"></use><use xlink:href="#SvgjsG1034" transform="translate(891, 594) scale(3)" fill="rgba(235, 235, 235, 1)"></use><use xlink:href="#SvgjsG1026" transform="translate(891, 693) scale(3)" fill="rgba(235, 235, 235, 1)"></use><use xlink:href="#SvgjsG1030" transform="translate(891, 792) scale(3)" fill="rgba(235, 235, 235, 1)"></use><use xlink:href="#SvgjsG1034" transform="translate(891, 891) scale(3)" fill="rgba(235, 235, 235, 1)"></use></g></defs></svg>